# xmcd
#
# Track frame offsets:
#	150
#	17252
#	33253
#	54267
#	73932
#	95161
#	112069
#	130085
#	154205
#	169865
#
# Disc length: 2529 seconds
#
# Revision: 0
# Processed by: cddbd v1.5.2PL0 Copyright (c) Steve Scherf et al.
# Submitted via: audiograbber 1.83.01
#
DISCID=8109df0a
DTITLE=Aaron Hellvis - Dancefloor On Fire
DYEAR=2011
DGENRE=
TTITLE0=Saint
TTITLE1=Love Is Love and Hell Is Hell
TTITLE2=Highway Hellcat
TTITLE3=Death Ride
TTITLE4=Prison Yard Riot
TTITLE5=RnR All Night Long
TTITLE6=Believe
TTITLE7=Preacher's Song
TTITLE8=Dancefloor On Fire
TTITLE9=Ghosttown Jukebox
EXTD=
EXTT0=
EXTT1=
EXTT2=
EXTT3=
EXTT4=
EXTT5=
EXTT6=
EXTT7=
EXTT8=
EXTT9=
PLAYORDER=
